# File created by Blade
# Date/Time:  Tue Sep 30 19:29:27 2014
#---------------------------------------------------------
:version 1.10
:name HOM
:units
  mass 1.0
  length 1.000000
  angle deg
:documentation
     Acclaim Skeleton File
:root
   axis xyz
   order TX TY TZ RX RY RZ
   position 0.000000 0.000000 0.000000
   orientation 0 0 0
:bonedata
   begin
      id 1
      name RightUpLeg_dum
      direction -1.000000 0.000000 0.000000
      length 3.766986
      axis 0.0 0.0 0.0 xyz
   end
   begin
      id 2
      name LeftUpLeg_dum
      direction 1.000000 0.000000 0.000000
      length 3.766986
      axis 0.0 0.0 0.0 xyz
   end
   begin
      id 3
      name Spine_dum
      direction 0.000000 1.000000 0.000000
      length 7.779697
      axis 0.0 0.0 0.0 xyz
   end
   begin
      id 4
      name RightUpLeg
      direction 0.000000 -1.000000 0.000000
      length 18.017682
      axis 0.0 0.0 0.0 xyz
      dof rx ry rz
   end
   begin
      id 5
      name RightLeg
      direction 0.000000 -1.000000 0.000000
      length 16.881075
      axis 0.0 0.0 0.0 xyz
      dof rx ry rz
   end
   begin
      id 6
      name RightFoot
      direction 0.000000 -0.258819 0.965926
      length 5.770812
      axis 15.0 0.0 0.0 xyz
      dof rx ry rz
   end
   begin
      id 7
      name RightToeBase
      direction 0.000000 0.000000 1.000000
      length 2.952750
      axis 0.0 0.0 0.0 xyz
      dof rx ry rz
   end
   begin
      id 8
      name LeftUpLeg
      direction 0.000000 -1.000000 0.000000
      length 18.017682
      axis 0.0 0.0 0.0 xyz
      dof rx ry rz
   end
   begin
      id 9
      name LeftLeg
      direction 0.000000 -1.000000 0.000000
      length 16.881075
      axis 0.0 0.0 0.0 xyz
      dof rx ry rz
   end
   begin
      id 10
      name LeftFoot
      direction 0.000000 -0.258819 0.965926
      length 5.770812
      axis 15.0 0.0 0.0 xyz
      dof rx ry rz
   end
   begin
      id 11
      name LeftToeBase
      direction 0.000000 0.000000 1.000000
      length 2.952750
      axis 0.0 0.0 0.0 xyz
      dof rx ry rz
   end
   begin
      id 12
      name Spine
      direction 0.000000 1.000000 0.000000
      length 0.000000
      axis 0.0 0.0 0.0 xyz
      dof rx ry rz
   end
   begin
      id 13
      name Spine_dum1
      direction 0.000000 1.000000 0.000000
      length 10.941760
      axis 0.0 0.0 0.0 xyz
   end
   begin
      id 14
      name Spine_dum2
      direction 0.000000 1.000000 0.000000
      length 10.941760
      axis 0.0 0.0 0.0 xyz
   end
   begin
      id 15
      name Spine_dum3
      direction 0.000000 1.000000 0.000000
      length 16.646042
      axis 0.0 0.0 0.0 xyz
   end
   begin
      id 16
      name RightShoulder
      direction -1.000000 0.000000 0.000000
      length 7.708937
      axis 0.0 0.0 90.0 xyz
      dof rx ry rz
   end
   begin
      id 17
      name RightArm
      direction -1.000000 0.000000 0.000000
      length 11.521345
      axis 0.0 0.0 90.0 xyz
      dof rx ry rz
   end
   begin
      id 18
      name RightForeArm
      direction -1.000000 0.000000 0.000000
      length 10.175898
      axis 0.0 0.0 90.0 xyz
      dof ry rz rx
   end
   begin
      id 19
      name RightHand
      direction -1.000000 0.000000 0.000000
      length 0.000000
      axis 0.0 0.0 90.0 xyz
      dof rx ry rz
   end
   begin
      id 20
      name RightHand_dum1
      direction -1.000000 0.000000 0.000000
      length 3.937000
      axis 0.0 0.0 90.0 xyz
   end
   begin
      id 21
      name RightHand_dum2
      direction 0.000000 0.000000 0.000000
      length 0.000000
      axis 0.0 0.0 90.0 xyz
   end
   begin
      id 22
      name RightHandThumb1
      direction 0.000000 0.000000 1.000000
      length 3.937000
      axis 0.0 0.0 90.0 xyz
      dof rx rz ry
   end
   begin
      id 23
      name LeftShoulder
      direction 1.000000 0.000000 0.000000
      length 7.708937
      axis 0.0 0.0 -90.0 xyz
      dof rx ry rz
   end
   begin
      id 24
      name LeftArm
      direction 1.000000 0.000000 0.000000
      length 11.521345
      axis 0.0 0.0 -90.0 xyz
      dof rx ry rz
   end
   begin
      id 25
      name LeftForeArm
      direction 1.000000 0.000000 0.000000
      length 10.175898
      axis 0.0 0.0 -90.0 xyz
      dof ry rz rx
   end
   begin
      id 26
      name LeftHand
      direction 1.000000 0.000000 0.000000
      length 0.000000
      axis 0.0 0.0 -90.0 xyz
      dof rx ry rz
   end
   begin
      id 27
      name LeftHand_dum1
      direction 1.000000 0.000000 0.000000
      length 3.937000
      axis 0.0 0.0 -90.0 xyz
   end
   begin
      id 28
      name LeftHand_dum2
      direction 0.000000 0.000000 0.000000
      length 0.000000
      axis 0.0 0.0 -90.0 xyz
   end
   begin
      id 29
      name LeftHandThumb1
      direction 0.000000 0.000000 1.000000
      length 3.937000
      axis 0.0 0.0 -90.0 xyz
      dof rx rz ry
   end
   begin
      id 30
      name Head
      direction 0.000000 1.000000 0.000000
      length 4.527550
      axis 0.0 0.0 0.0 xyz
      dof rx ry rz
   end
:hierarchy
   begin
      root RightUpLeg_dum LeftUpLeg_dum Spine_dum
      RightUpLeg_dum RightUpLeg
      LeftUpLeg_dum LeftUpLeg
      Spine_dum Spine
      RightUpLeg RightLeg
      RightLeg RightFoot
      RightFoot RightToeBase
      LeftUpLeg LeftLeg
      LeftLeg LeftFoot
      LeftFoot LeftToeBase
      Spine Spine_dum1 Spine_dum2 Spine_dum3
      Spine_dum1 RightShoulder
      Spine_dum2 LeftShoulder
      Spine_dum3 Head
      RightShoulder RightArm
      RightArm RightForeArm
      RightForeArm RightHand
      RightHand RightHand_dum1 RightHand_dum2
      RightHand_dum2 RightHandThumb1
      LeftShoulder LeftArm
      LeftArm LeftForeArm
      LeftForeArm LeftHand
      LeftHand LeftHand_dum1 LeftHand_dum2
      LeftHand_dum2 LeftHandThumb1
   end

# File created by Blade
# Date/Time:  Mon Sep 22 17:23:16 2014
# Frame Rate: 120.000 fps
#------------------------------------------------------
:FULLY-SPECIFIED
:DEGREES
1
root -0.658380 37.293113 -1.567247 -4.647563 -9.558990 2.295892
RightUpLeg 10.224675 0.025742 -1.723050
RightLeg -4.071142 -0.000000 0.000000
RightFoot -11.262156 -13.868708 14.191336
RightToeBase 14.033687 -0.000000 -0.000000
LeftUpLeg 10.824103 -4.977813 -3.242652
LeftLeg -2.308141 -0.000000 0.000000
LeftFoot -11.842261 20.246279 -19.522511
LeftToeBase 10.427273 -0.000000 -0.000000
Spine 8.585905 -2.187598 -0.857908
RightShoulder -1.072572 -16.326583 -20.602353
RightArm 13.352833 17.743936 28.809128
RightForeArm -174.509942 -0.000000 57.171160
RightHand 101.999108 -0.000000 -172.558224
RightHandThumb1 -24.326973 -0.000000 -32.862282
LeftShoulder -21.436700 29.498881 8.681936
LeftArm 48.970044 -44.959715 -57.505296
LeftForeArm 25.756343 -0.000000 43.865767
LeftHand -22.352055 -0.000000 1.400855
LeftHandThumb1 -26.253704 0.000000 33.147579
Head 1.285358 16.500075 1.113517
2
root -0.665289 37.292594 -1.578351 -4.673540 -9.477526 2.308609
RightUpLeg 10.236284 0.020310 -1.718252
RightLeg -4.053692 -0.000000 0.000000
RightFoot -11.304424 -13.950004 14.195841
RightToeBase 13.936321 -0.000000 -0.000000
LeftUpLeg 10.821296 -4.971150 -3.231731
LeftLeg -2.298770 -0.000000 0.000000
LeftFoot -11.800660 20.169823 -19.501829
LeftToeBase 10.451677 -0.000000 -0.000000
Spine 8.605850 -2.223392 -0.936306
RightShoulder -1.045911 -16.646414 -20.351959
RightArm 13.640595 17.410140 29.159607
RightForeArm -174.802957 0.000000 58.422218
RightHand 101.904363 0.000000 -172.940677
RightHandThumb1 -24.326973 -0.000000 -32.862282
LeftShoulder -21.426376 29.628054 8.666855
LeftArm 49.313191 -44.679560 -57.925632
LeftForeArm 25.919721 -0.000000 44.881803
LeftHand -22.542567 -0.000000 2.095692
LeftHandThumb1 -26.253704 0.000000 33.147579
Head 1.289066 15.987516 1.041682
3
root -0.671169 37.292524 -1.589230 -4.709448 -9.386191 2.305070
RightUpLeg 10.252849 -0.018657 -1.700291
RightLeg -4.015786 -0.000000 0.000000
RightFoot -11.343053 -14.007446 14.166966
RightToeBase 13.923456 -0.000000 -0.000000
LeftUpLeg 10.835023 -5.010873 -3.217970
LeftLeg -2.295603 -0.000000 0.000000
LeftFoot -11.773504 20.130250 -19.485089
LeftToeBase 10.451713 -0.000000 -0.000000
Spine 8.668285 -2.266305 -0.955374
RightShoulder -1.114618 -17.081575 -20.080782
RightArm 14.095190 17.136946 29.507658
RightForeArm -174.786448 -0.000000 59.737708
RightHand 101.614745 -0.000000 -172.605024
RightHandThumb1 -24.326973 -0.000000 -32.862282
LeftShoulder -21.350084 29.620345 8.636937
LeftArm 49.325132 -44.347543 -58.027871
LeftForeArm 25.942788 -0.000000 45.924502
LeftHand -22.553280 -0.000000 2.874371
LeftHandThumb1 -26.253704 0.000000 33.147579
Head 1.303928 16.018060 1.096618
4
root -0.677018 37.292296 -1.600110 -4.740076 -9.300018 2.286337
RightUpLeg 10.269347 -0.022366 -1.662661
RightLeg -3.980800 -0.000000 0.000000
RightFoot -11.370301 -14.064461 14.244241
RightToeBase 13.882147 -0.000000 -0.000000
LeftUpLeg 10.852459 -5.052361 -3.187923
LeftLeg -2.310726 -0.000000 0.000000
LeftFoot -11.733127 20.113446 -19.455817
LeftToeBase 10.449468 -0.000000 -0.000000
Spine 8.735437 -2.325030 -0.927237
RightShoulder -1.148499 -17.391247 -19.928741
RightArm 14.504983 16.794728 30.011866
RightForeArm -174.952149 -0.000000 60.980865
RightHand 101.552579 -0.000000 -172.655245
RightHandThumb1 -24.326973 -0.000000 -32.862282
LeftShoulder -21.339736 29.659595 8.501626
LeftArm 49.610652 -44.086930 -58.362392
LeftForeArm 26.189998 -0.000000 46.883539
LeftHand -22.770591 0.000000 3.634668
LeftHandThumb1 -26.253704 0.000000 33.147579
Head 1.331864 16.402965 1.252881
5
root -0.683466 37.291508 -1.610546 -4.781382 -9.208765 2.286009
RightUpLeg 10.291846 -0.031284 -1.642398
RightLeg -3.947534 -0.000000 0.000000
RightFoot -11.414752 -14.160070 14.244285
RightToeBase 13.755838 -0.000000 -0.000000
LeftUpLeg 10.874529 -5.106203 -3.178720
LeftLeg -2.306274 -0.000000 0.000000
LeftFoot -11.731388 20.084377 -19.451030
LeftToeBase 10.440799 -0.000000 -0.000000
Spine 8.811263 -2.386045 -0.951414
RightShoulder -1.225421 -17.814692 -19.663866
RightArm 15.020995 16.497220 30.449720
RightForeArm -175.033207 0.000000 62.214687
RightHand 101.454322 -0.000000 -172.466282
RightHandThumb1 -24.326973 -0.000000 -32.862282
LeftShoulder -21.286521 29.655692 8.467583
LeftArm 49.671733 -43.698516 -58.550023
LeftForeArm 26.780303 -0.000000 47.822004
LeftHand -22.788284 -0.000000 5.271835
LeftHandThumb1 -26.253704 0.000000 33.147579
Head 1.317481 16.495630 1.349928
6
root -0.692329 37.290836 -1.622086 -4.811926 -9.109370 2.276839
RightUpLeg 10.305406 -0.063479 -1.614979
RightLeg -3.914940 -0.000000 0.000000
RightFoot -11.461676 -14.227431 14.219270
RightToeBase 13.813539 -0.000000 -0.000000
LeftUpLeg 10.882053 -5.129674 -3.149118
LeftLeg -2.302920 -0.000000 0.000000
LeftFoot -11.665256 20.050731 -19.382190
LeftToeBase 10.346990 -0.000000 -0.000000
Spine 8.875005 -2.472536 -0.976535
RightShoulder -1.243456 -18.140957 -19.434907
RightArm 15.453693 16.108843 30.931521
RightForeArm -175.135912 0.000000 63.432618
RightHand 101.369102 -0.000000 -172.537334
RightHandThumb1 -24.326973 -0.000000 -32.862282
LeftShoulder -21.229911 29.654725 8.449615
LeftArm 49.738993 -43.322812 -58.814109
LeftForeArm 27.465279 0.000000 48.808540
LeftHand -23.011892 -0.000000 7.014545
LeftHandThumb1 -26.253704 0.000000 33.147579
Head 1.304318 16.511378 1.386008
